<svg width="32" height="16" viewBox="0 0 32 16" fill="none" xmlns="http://www.w3.org/2000/svg">
<path id="Arrow 3" d="M31.7071 7.29289C32.0976 7.68342 32.0976 8.31658 31.7071 8.70711L25.3431 15.0711C24.9526 15.4616 24.3195 15.4616 23.9289 15.0711C23.5384 14.6805 23.5384 14.0474 23.9289 13.6569L29.5858 8L23.9289 2.34315C23.5384 1.95262 23.5384 1.31946 23.9289 0.928932C24.3195 0.538407 24.9526 0.538407 25.3431 0.928932L31.7071 7.29289ZM1 9C0.447715 9 -4.82823e-08 8.55228 0 8C4.82823e-08 7.44771 0.447715 7 1 7L1 9ZM31 9L1 9L1 7L31 7L31 9Z" fill="white"/>
</svg>
